<svg xmlns="http://www.w3.org/2000/svg" xmlns:xlink="http://www.w3.org/1999/xlink" viewBox="0 0 122.35 82.09"><defs><style>.cls-1{isolation:isolate;}.cls-2{fill:#00dac8;}.cls-3{fill:#28aad6;}.cls-10,.cls-11,.cls-4,.cls-8,.cls-9{opacity:0.3;}.cls-10,.cls-11,.cls-4,.cls-5,.cls-7,.cls-8,.cls-9{mix-blend-mode:multiply;}.cls-5{fill:url(#linear-gradient);}.cls-6{fill:#fff;}.cls-7{fill:url(#linear-gradient-2);}.cls-8{fill:url(#radial-gradient);}.cls-9{fill:url(#radial-gradient-2);}.cls-10{fill:url(#radial-gradient-3);}.cls-11{fill:url(#radial-gradient-4);}</style><linearGradient id="linear-gradient" x1="129.58" y1="41.32" x2="44.42" y2="41.32" gradientUnits="userSpaceOnUse"><stop offset="0" stop-color="#fff"/><stop offset="0.11" stop-color="#fafafa"/><stop offset="0.23" stop-color="#ececec"/><stop offset="0.36" stop-color="#d5d5d5"/><stop offset="0.5" stop-color="#b5b5b5"/><stop offset="0.64" stop-color="#8c8c8c"/><stop offset="0.79" stop-color="#595959"/><stop offset="0.93" stop-color="#1e1e1e"/><stop offset="1"/></linearGradient><linearGradient id="linear-gradient-2" x1="6.8" y1="41.32" x2="74.82" y2="41.32" xlink:href="#linear-gradient"/><radialGradient id="radial-gradient" cx="45.65" cy="46.59" r="17.81" gradientUnits="userSpaceOnUse"><stop offset="0.71" stop-color="#fff"/><stop offset="0.76" stop-color="#fcfcfc"/><stop offset="0.8" stop-color="#f3f3f3"/><stop offset="0.83" stop-color="#e3e3e3"/><stop offset="0.87" stop-color="#cdcdcd"/><stop offset="0.89" stop-color="#b0b0b0"/><stop offset="0.92" stop-color="#8c8c8c"/><stop offset="0.95" stop-color="#626262"/><stop offset="0.98" stop-color="#333"/><stop offset="1"/></radialGradient><radialGradient id="radial-gradient-2" cx="510.19" cy="353.95" r="17.54" xlink:href="#radial-gradient"/><radialGradient id="radial-gradient-3" cx="480.62" cy="410.82" r="14.36" gradientTransform="translate(429.08 -225.8) rotate(45)" gradientUnits="userSpaceOnUse"><stop offset="0.81" stop-color="#fff"/><stop offset="0.85" stop-color="#fcfcfc"/><stop offset="0.87" stop-color="#f3f3f3"/><stop offset="0.9" stop-color="#e3e3e3"/><stop offset="0.92" stop-color="#cdcdcd"/><stop offset="0.93" stop-color="#b0b0b0"/><stop offset="0.95" stop-color="#8c8c8c"/><stop offset="0.97" stop-color="#626262"/><stop offset="0.99" stop-color="#333"/><stop offset="1"/></radialGradient><radialGradient id="radial-gradient-4" cx="73.8" cy="43.68" r="12.15" xlink:href="#radial-gradient"/></defs><title>39</title><g class="cls-1"><g id="Object"><polygon class="cls-2" points="81.54 41.17 67.91 54.8 61.15 48.04 68.02 41.17 61.15 34.31 54.4 27.54 40.77 13.92 13.51 41.17 40.77 68.42 54.4 54.8 61.15 61.56 40.77 81.94 0 41.17 40.77 0.4 61.15 20.79 67.91 27.55 81.54 41.17"/><polygon class="cls-3" points="122.31 40.77 81.54 81.54 61.15 61.16 54.4 54.4 40.77 40.77 54.4 27.14 61.15 33.9 54.28 40.77 61.15 47.64 81.54 68.02 108.8 40.77 81.54 13.52 67.91 27.15 61.15 20.39 81.54 0 122.31 40.77"/><g class="cls-4"><polygon class="cls-5" points="57.82 51.57 61.2 54.95 64.58 58.33 81.58 75.34 115.6 41.32 81.58 7.31 64.58 24.32 67.96 27.7 81.58 14.07 108.83 41.32 81.58 68.57 67.96 54.95 64.58 51.57 61.2 48.19 54.33 41.32 61.2 34.45 57.82 31.08 47.57 41.32 57.82 51.57"/><polygon class="cls-6" points="67.96 27.7 64.58 24.32 61.2 20.94 40.81 0.55 0.04 41.32 40.81 82.09 61.2 61.71 57.82 58.33 40.81 75.34 6.8 41.32 40.81 7.31 57.82 24.32 61.2 27.69 64.58 31.08 74.83 41.32 64.58 51.57 67.96 54.95 81.58 41.32 67.96 27.7"/><polygon class="cls-7" points="64.58 31.08 61.19 27.69 57.82 24.32 40.81 7.31 6.8 41.32 40.81 75.34 57.82 58.33 54.44 54.95 40.81 68.57 13.56 41.32 40.81 14.07 54.44 27.69 57.82 31.08 61.19 34.45 68.07 41.32 61.19 48.19 64.58 51.57 74.82 41.32 64.58 31.08"/><polygon class="cls-6" points="81.58 0.55 61.2 20.94 64.58 24.32 81.58 7.31 115.6 41.32 81.58 75.34 64.58 58.33 61.2 54.95 57.82 51.57 47.57 41.32 57.82 31.08 54.44 27.69 40.81 41.32 54.44 54.95 61.2 61.71 81.58 82.09 122.35 41.32 81.58 0.55"/></g><polygon class="cls-8" points="61.2 34.31 54.44 27.54 46.13 35.86 54.73 40.77 61.2 34.31"/><path class="cls-9" d="M495.08,363.08l6.76,6.76,10.7-10.7c-1.82-1.76-4.57-4.36-6.93-6.59Z" transform="translate(-433.88 -342.29)"/><rect class="cls-10" x="480.62" y="400.27" width="12.95" height="9.56" transform="translate(-577.62 120.78) rotate(-45)"/><polygon class="cls-11" points="67.94 54.8 74.44 48.3 66.82 42.4 61.18 48.04 67.94 54.8"/></g></g></svg>